<svg width="67" height="56" viewBox="0 0 67 56" fill="none" xmlns="http://www.w3.org/2000/svg">
<path d="M66.5 38C66.5 47.9411 58.4411 56 48.5 56L21.5 56C18.7386 56 16.5 53.7614 16.5 51L16.5 17C16.5 11.4772 20.9772 7 26.5 7L61.5 7C64.2614 7 66.5 9.23858 66.5 12L66.5 38Z" fill="#6A34C7" fill-opacity="0.2"/>
<path d="M36.21 20.85L20.53 32.39L4.85 20.85M3 17.03C2.46957 17.03 1.96086 17.2407 1.58579 17.6158C1.21071 17.9909 1 18.4996 1 19.03V41.64C1 42.1704 1.21071 42.6791 1.58579 43.0542C1.96086 43.4293 2.46957 43.64 3 43.64H38.06C38.5904 43.64 39.0991 43.4293 39.4742 43.0542C39.8493 42.6791 40.06 42.1704 40.06 41.64V19C40.06 18.4696 39.8493 17.9609 39.4742 17.5858C39.0991 17.2107 38.5904 17 38.06 17H3V17.03Z" stroke="black" stroke-linecap="round" stroke-linejoin="round"/>
</svg>
