<svg width="49" height="50" viewBox="0 0 49 50" fill="none" xmlns="http://www.w3.org/2000/svg">
<g id="Wrapper">
<path id="Shape" fill-rule="evenodd" clip-rule="evenodd" d="M41.667 25.413C41.667 24.1246 41.5514 22.8858 41.3366 21.6966H24.225V28.7246H34.0031C33.5819 30.9957 32.3018 32.92 30.3776 34.2083V38.767H36.2494C39.6849 35.604 41.667 30.9462 41.667 25.413Z" fill="#4285F4"/>
<path id="Shape_2" fill-rule="evenodd" clip-rule="evenodd" d="M24.225 43.1688C29.1306 43.1688 33.2433 41.5418 36.2494 38.767L30.3776 34.2083C28.7507 35.2984 26.6695 35.9425 24.225 35.9425C19.4929 35.9425 15.4875 32.7465 14.0588 28.4521H7.98877V33.1594C10.9784 39.0973 17.1227 43.1688 24.225 43.1688Z" fill="#34A853"/>
<path id="Shape_3" fill-rule="evenodd" clip-rule="evenodd" d="M14.0588 28.452C13.6954 27.3619 13.4889 26.1975 13.4889 25C13.4889 23.8025 13.6954 22.638 14.0588 21.5479V16.8406H7.98877C6.75825 19.2933 6.05627 22.0682 6.05627 25C6.05627 27.9318 6.75825 30.7066 7.98877 33.1594L14.0588 28.452Z" fill="#FBBC05"/>
<path id="Shape_4" fill-rule="evenodd" clip-rule="evenodd" d="M24.225 14.0575C26.8925 14.0575 29.2875 14.9742 31.1704 16.7745L36.3816 11.5634C33.2351 8.63161 29.1223 6.83126 24.225 6.83126C17.1227 6.83126 10.9784 10.9027 7.98877 16.8406L14.0588 21.5479C15.4875 17.2535 19.4929 14.0575 24.225 14.0575Z" fill="#EA4335"/>
</g>
</svg>
