<svg width="32" height="33" viewBox="0 0 32 33" fill="none" xmlns="http://www.w3.org/2000/svg">
<g id="Social Icons">
<path id="BG" opacity="0.1" fill-rule="evenodd" clip-rule="evenodd" d="M0 16.6719C0 7.83532 7.16344 0.671875 16 0.671875C24.8366 0.671875 32 7.83532 32 16.6719C32 25.5084 24.8366 32.6719 16 32.6719C7.16344 32.6719 0 25.5084 0 16.6719Z" fill="white"/>
<path id="Path" fill-rule="evenodd" clip-rule="evenodd" d="M15.5208 13.677L15.5544 14.2306L14.9948 14.1628C12.9579 13.9029 11.1784 13.0216 9.66756 11.5415L8.92891 10.8071L8.73865 11.3494C8.33575 12.5584 8.59316 13.8352 9.43253 14.6939C9.8802 15.1684 9.77948 15.2362 9.00725 14.9537C8.73865 14.8633 8.50363 14.7955 8.48124 14.8294C8.4029 14.9085 8.6715 15.9367 8.88414 16.3435C9.17513 16.9084 9.76828 17.462 10.4174 17.7897L10.9658 18.0496L10.3167 18.0609C9.68994 18.0609 9.66756 18.0722 9.73471 18.3094C9.95854 19.0439 10.8427 19.8235 11.8276 20.1624L12.5214 20.3997L11.9171 20.7613C11.0218 21.281 9.96973 21.5748 8.91772 21.5974C8.41409 21.6087 8 21.6539 8 21.6877C8 21.8007 9.36538 22.4335 10.16 22.682C12.5438 23.4164 15.3753 23.1001 17.5017 21.8459C19.0126 20.9533 20.5235 19.1794 21.2286 17.462C21.6091 16.5468 21.9896 14.8746 21.9896 14.0724C21.9896 13.5527 22.0232 13.4849 22.6499 12.8635C23.0192 12.5019 23.3662 12.1065 23.4333 11.9935C23.5452 11.7788 23.534 11.7788 22.9633 11.9709C22.012 12.3098 21.8777 12.2646 22.3477 11.7562C22.6947 11.3946 23.1088 10.7393 23.1088 10.5472C23.1088 10.5133 22.9409 10.5698 22.7506 10.6715C22.5492 10.7845 22.1015 10.954 21.7658 11.0557L21.1614 11.2478L20.613 10.8749C20.3108 10.6715 19.8856 10.4455 19.6617 10.3778C19.0909 10.2196 18.218 10.2422 17.7032 10.4229C16.3042 10.9314 15.4201 12.242 15.5208 13.677Z" fill="white"/>
</g>
</svg>
