<svg width="65" height="49" viewBox="0 0 65 49" fill="none" xmlns="http://www.w3.org/2000/svg">
<path d="M65 31C65 40.9411 56.9411 49 47 49L20 49C17.2386 49 15 46.7614 15 44L15 10C15 4.47715 19.4772 -1.65037e-07 25 3.17786e-07L60 3.37758e-06C62.7614 3.61899e-06 65 2.23858 65 5L65 31Z" fill="#6A34C7" fill-opacity="0.2"/>
<path d="M23.99 3.00003C20.4187 3.00003 17.5114 5.93391 17.5114 9.52037C17.5114 11.7892 18.6765 13.7925 20.4358 14.9602C18.3109 15.6707 16.4723 16.9985 15.1238 18.7357C14.3782 18.1622 13.5451 17.701 12.647 17.3705C14.0089 16.3595 14.8989 14.7354 14.8989 12.91C14.8989 9.86826 12.4388 7.37822 9.41547 7.37822C6.39215 7.37822 3.93208 9.86826 3.93208 12.91C3.93208 14.7364 4.82277 16.3613 6.18579 17.3723C2.57721 18.7039 0 22.1903 0 26.2933V29.1755C0.000369347 29.3952 0.0882567 29.6057 0.244089 29.7604C0.39992 29.9155 0.610779 30.0019 0.830496 30.0012H13.4755C13.5061 30.0045 13.5368 30.0063 13.5674 30.006H34.4133C34.4439 30.0063 34.4749 30.0045 34.5052 30.0012H47.1511C47.6057 29.9993 47.9739 29.6304 47.975 29.1755V26.2933C47.975 22.1903 45.4022 18.7039 41.7955 17.372C43.1585 16.3613 44.0492 14.736 44.0492 12.9096C44.0492 9.86788 41.5892 7.37784 38.5658 7.37784C35.5426 7.37784 33.0824 9.86788 33.0824 12.9096C33.0824 14.735 33.9728 16.3594 35.3346 17.3702C34.4347 17.7014 33.6013 18.1641 32.8546 18.739C31.5067 17.0008 29.6707 15.6711 27.5459 14.9602C29.3047 13.7925 30.4703 11.7892 30.4703 9.52037C30.4703 5.93391 27.5614 3.00003 23.9902 3.00003H23.99ZM23.99 4.65439C26.661 4.65439 28.8142 6.82207 28.8142 9.52037C28.8142 12.1976 26.6945 14.3442 24.0531 14.3786C24.0321 14.3786 24.0114 14.3757 23.99 14.3757C23.9686 14.3757 23.9483 14.3786 23.9268 14.3786C21.2854 14.3446 19.1672 12.1977 19.1672 9.52037C19.1672 6.82169 21.3186 4.65439 23.9896 4.65439H23.99ZM9.41556 9.03248C11.5348 9.03248 13.2446 10.7525 13.2446 12.9099C13.2446 15.0528 11.557 16.7655 9.45763 16.7888C9.4436 16.7888 9.42994 16.7873 9.41553 16.7873C9.4015 16.7873 9.38784 16.7888 9.37344 16.7888C7.2741 16.7655 5.58647 15.0525 5.58647 12.9099C5.58647 10.7526 7.29623 9.03248 9.4155 9.03248H9.41556ZM38.5653 9.03248C40.6846 9.03248 42.3944 10.7525 42.3944 12.9099C42.3944 15.0528 40.7067 16.7655 38.6074 16.7888C38.5934 16.7888 38.5797 16.7873 38.5653 16.7873C38.5513 16.7873 38.5376 16.7888 38.5232 16.7888C36.4239 16.7655 34.7363 15.0525 34.7363 12.9099C34.7363 10.7526 36.446 9.03248 38.5653 9.03248H38.5653ZM23.9266 16.0329C23.9477 16.0332 23.9684 16.0358 23.9898 16.0358C24.0108 16.0358 24.0315 16.0329 24.0529 16.0329C29.3502 16.0668 33.5896 20.3427 33.5896 25.6953L33.5892 28.3511H14.3911V25.6953C14.3911 20.3422 18.6293 16.0669 23.9259 16.0329H23.9266ZM9.35223 18.445C9.37327 18.4454 9.39395 18.448 9.41537 18.448C9.43679 18.448 9.4571 18.445 9.47852 18.445C11.2702 18.4594 12.9054 19.0772 14.2074 20.1108C13.2757 21.7593 12.7369 23.6621 12.7369 25.6957V28.3453H1.65369V26.2932C1.65369 21.9431 5.07396 18.479 9.35203 18.4446L9.35223 18.445ZM38.502 18.445C38.5234 18.4454 38.5437 18.448 38.5652 18.448C38.5866 18.448 38.6069 18.445 38.6283 18.445C42.9064 18.479 46.3266 21.9436 46.3266 26.2936V28.3453H35.2377L35.2374 25.6957C35.2374 23.6632 34.7001 21.7619 33.7702 20.1137C35.0726 19.0787 36.7089 18.4594 38.5021 18.445H38.502Z" fill="#103E13"/>
</svg>
